<svg xmlns="http://www.w3.org/2000/svg" width="40" height="40" viewBox="-2 -3 32 32">
    <path d="M8.75343 16.5679C7.99306 16.5679 7.38477 15.9596 7.38477 15.1993V11.0933C7.38477 10.3329 7.99306 9.72461 8.75343 9.72461C9.5138 9.72461 10.1221 10.3329 10.1221 11.0933V15.1688C10.1221 15.9292 9.5138 16.5679 8.75343 16.5679Z" fill="#AE304A"/>
    <path d="M15.8394 12.4617C15.5961 12.4617 15.3832 12.4009 15.1703 12.2792L11.6117 10.2415C10.973 9.87648 10.7297 9.02487 11.1251 8.38616C11.4901 7.74745 12.3417 7.50413 12.9804 7.89952L16.5085 9.93731C17.1472 10.3023 17.3905 11.1539 16.9951 11.7926C16.7518 12.2184 16.2956 12.4617 15.8394 12.4617Z" fill="#106D65"/>
    <path d="M26.4546 18.6063C26.2113 18.6063 25.9984 18.5454 25.7855 18.4238L22.227 16.386C21.5883 16.021 21.345 15.1694 21.7403 14.5307C22.1053 13.892 22.9569 13.6487 23.5956 14.0441L27.1237 16.0818C27.7625 16.4468 28.0058 17.2984 27.6104 17.9371C27.3975 18.3629 26.9108 18.6063 26.4546 18.6063Z" fill="#0093E5"/>
    <path d="M5.19374 6.31818C4.95042 6.31818 4.73752 6.25735 4.52462 6.13569L0.99651 4.0979C0.357801 3.73293 0.114483 2.88131 0.509875 2.2426C0.874851 1.60389 1.72646 1.36058 2.36517 1.75597L5.89328 3.79375C6.53199 4.15873 6.77531 5.01034 6.37992 5.64905C6.1366 6.07486 5.68038 6.31818 5.19374 6.31818Z" fill="#649791"/>
    <path d="M5.19374 18.6063C4.95042 18.6063 4.73752 18.5454 4.52462 18.4238L0.99651 16.386C0.357801 16.021 0.114483 15.1694 0.509875 14.5307C0.874851 13.892 1.72646 13.6487 2.36517 14.0441L5.89328 16.0818C6.53199 16.4468 6.77531 17.2984 6.37992 17.9371C6.1366 18.3629 5.68038 18.6063 5.19374 18.6063Z" fill="#0093E5"/>
    <path d="M15.8402 24.7195C15.5969 24.7195 15.384 24.6587 15.1711 24.5371L11.643 22.4993C11.0043 22.1343 10.761 21.2827 11.1564 20.644C11.5213 20.0053 12.3729 19.7619 13.0117 20.1573L16.5398 22.1951C17.1785 22.5601 17.4218 23.4117 17.0264 24.0504C16.7527 24.4762 16.2964 24.7195 15.8402 24.7195Z" fill="#649791"/>
    <path d="M8.75343 4.28067C7.99306 4.28067 7.38477 3.67238 7.38477 2.91201V-1.16356C7.38477 -1.92393 7.99306 -2.53223 8.75343 -2.53223C9.5138 -2.53223 10.1221 -1.92393 10.1221 -1.16356V2.91201C10.1221 3.67238 9.5138 4.28067 8.75343 4.28067Z" fill="#690E26"/>
    <path d="M8.75343 28.8257C7.99306 28.8257 7.38477 28.2174 7.38477 27.4571V23.3511C7.38477 22.5907 7.99306 21.9824 8.75343 21.9824C9.5138 21.9824 10.1221 22.5907 10.1221 23.3511V27.4267C10.1221 28.2174 9.5138 28.8257 8.75343 28.8257Z" fill="#B9BC63"/>
    <path d="M19.3687 10.4242C18.6083 10.4242 18 9.81593 18 9.05556V4.97999C18 4.21962 18.6083 3.61133 19.3687 3.61133C20.129 3.61133 20.7373 4.21962 20.7373 4.97999V9.05556C20.7373 9.81593 20.129 10.4242 19.3687 10.4242Z" fill="#B9BC63"/>
    <path d="M19.3687 22.6811C18.6083 22.6811 18 22.0728 18 21.3124V17.2368C18 16.4765 18.6083 15.8682 19.3687 15.8682C20.129 15.8682 20.7373 16.4765 20.7373 17.2368V21.3124C20.7373 22.0728 20.129 22.6811 19.3687 22.6811Z" fill="#690E26"/>
    <path d="M12.2821 6.31847C11.7955 6.31847 11.3393 6.07515 11.096 5.64935C10.731 5.01064 10.9439 4.15903 11.5826 3.79405L15.1411 1.72585C15.7798 1.36087 16.6314 1.57378 16.9964 2.21249C17.3614 2.85119 17.1485 3.70281 16.5098 4.06778L12.9817 6.10557C12.7688 6.28806 12.5255 6.31847 12.2821 6.31847Z" fill="#91BEAF"/>
    <path d="M1.66691 12.4629C1.18027 12.4629 0.724051 12.2195 0.480733 11.7937C0.115756 11.155 0.328659 10.3034 0.967369 9.93844L4.49548 7.90065C5.13418 7.53568 5.9858 7.74858 6.35077 8.38729C6.71575 9.026 6.50285 9.87761 5.86414 10.2426L2.36645 12.2804C2.12313 12.402 1.91022 12.4629 1.66691 12.4629Z" fill="#F1CE4A"/>
    <path d="M22.9267 12.4629C22.44 12.4629 21.9838 12.2195 21.7405 11.7937C21.3755 11.155 21.5884 10.3034 22.2271 9.93844L25.7552 7.90065C26.3939 7.53568 27.2456 7.74858 27.6105 8.38729C27.9755 9.026 27.7626 9.87761 27.1239 10.2426L23.5958 12.2804C23.3829 12.402 23.1396 12.4629 22.9267 12.4629Z" fill="#F1CE4A"/>
    <path d="M1.66691 24.7187C1.18027 24.7187 0.724051 24.4754 0.480733 24.0496C0.115756 23.4109 0.328659 22.5593 0.967369 22.1943L4.49548 20.1565C5.13418 19.7915 5.9858 20.0044 6.35077 20.6431C6.71575 21.2819 6.50285 22.1335 5.86414 22.4984L2.36645 24.5362C2.12313 24.6579 1.91022 24.7187 1.66691 24.7187Z" fill="#91BEAF"/>
    <path d="M12.2821 18.6064C11.7955 18.6064 11.3393 18.3631 11.096 17.9373C10.731 17.2986 10.9439 16.447 11.5826 16.082L15.1107 14.0442C15.7494 13.6792 16.601 13.8921 16.966 14.5308C17.331 15.1696 17.1181 16.0212 16.4794 16.3861L12.9513 18.4239C12.7688 18.5456 12.5255 18.6064 12.2821 18.6064Z" fill="#E6961E"/>
</svg>
